<svg viewBox="0 0 128 128" fill="none" xmlns="http://www.w3.org/2000/svg">
  <path fill-rule="evenodd" clip-rule="evenodd" d="M64 0C28.6538 0 0 28.6538 0 64C0 99.3462 28.6538 128 64 128C99.3462 128 128 99.3462 128 64C128 28.6538 99.3462 0 64 0ZM64 115.2C35.9136 115.2 12.8 92.0864 12.8 64C12.8 35.9136 35.9136 12.8 64 12.8C92.0864 12.8 115.2 35.9136 115.2 64C115.2 92.0864 92.0864 115.2 64 115.2ZM64 76.8C70.932 76.8 76.8 70.932 76.8 64C76.8 57.068 70.932 51.2 64 51.2C57.068 51.2 51.2 57.068 51.2 64C51.2 70.932 57.068 76.8 64 76.8Z" fill="#000000"/>
</svg>
